<svg aria-hidden="true" style="position: absolute; width: 0; height: 0; overflow: hidden;" version="1.1" xmlns="http://www.w3.org/2000/svg" xmlns:xlink="http://www.w3.org/1999/xlink">
    <defs>
        <symbol id="icon-align-justify" viewBox="0 0 31 32">
            <path stroke-linejoin="round" stroke-linecap="round" stroke-miterlimit="4" stroke-width="1.9394" d="M27.151 13.414h-23.273"></path>
            <path stroke-linejoin="round" stroke-linecap="round" stroke-miterlimit="4" stroke-width="1.9394" d="M27.151 8.242h-23.273"></path>
            <path stroke-linejoin="round" stroke-linecap="round" stroke-miterlimit="4" stroke-width="1.9394" d="M27.151 18.586h-23.273"></path>
            <path stroke-linejoin="round" stroke-linecap="round" stroke-miterlimit="4" stroke-width="1.9394" d="M27.151 23.758h-23.273"></path>
        </symbol>
        <symbol id="icon-shopping-cart" viewBox="0 0 32 32">
            <path stroke-linejoin="round" stroke-linecap="round" stroke-miterlimit="4" stroke-width="2.6667" d="M12 29.333c0.736 0 1.333-0.597 1.333-1.333s-0.597-1.333-1.333-1.333c-0.736 0-1.333 0.597-1.333 1.333s0.597 1.333 1.333 1.333z"></path>
            <path stroke-linejoin="round" stroke-linecap="round" stroke-miterlimit="4" stroke-width="2.6667" d="M26.667 29.333c0.736 0 1.333-0.597 1.333-1.333s-0.597-1.333-1.333-1.333c-0.736 0-1.333 0.597-1.333 1.333s0.597 1.333 1.333 1.333z"></path>
            <path stroke-linejoin="round" stroke-linecap="round" stroke-miterlimit="4" stroke-width="2.4" d="M1.333 1.333h5.333l3.573 17.853c0.122 0.614 0.456 1.165 0.943 1.558s1.098 0.601 1.723 0.589h12.96c0.626 0.012 1.236-0.197 1.723-0.589s0.821-0.944 0.943-1.558l2.133-11.187h-22.667"></path>
        </symbol>
        <symbol id="icon-Star" viewBox="0 0 34 32">
            <path d="M14.89 2.282c0.737-2.268 3.945-2.268 4.682 0l2.080 6.402c0.33 1.014 1.275 1.701 2.341 1.701h6.731c2.384 0 3.376 3.051 1.447 4.453l-5.446 3.957c-0.863 0.627-1.224 1.738-0.894 2.752l2.080 6.402c0.737 2.268-1.859 4.154-3.788 2.752l-5.446-3.957c-0.863-0.627-2.031-0.627-2.894 0l-5.446 3.957c-1.929 1.402-4.525-0.484-3.788-2.752l2.080-6.402c0.33-1.014-0.031-2.125-0.894-2.752l-5.446-3.957c-1.929-1.402-0.938-4.453 1.447-4.453h6.731c1.066 0 2.012-0.687 2.341-1.701l2.080-6.402z"></path>
        </symbol>
        <symbol id="icon-search-3-1" viewBox="0 0 32 32">
            <path d="M28.947 27.054l-4.947-4.907c1.92-2.394 2.85-5.433 2.598-8.492s-1.666-5.905-3.951-7.953-5.269-3.143-8.337-3.059c-3.068 0.084-5.987 1.34-8.157 3.51s-3.426 5.089-3.51 8.157c-0.084 3.068 1.011 6.051 3.059 8.337s4.894 3.7 7.953 3.951c3.059 0.252 6.098-0.678 8.492-2.598l4.907 4.907c0.124 0.125 0.271 0.224 0.434 0.292s0.337 0.102 0.513 0.102c0.176 0 0.35-0.035 0.513-0.102s0.31-0.167 0.434-0.292c0.24-0.249 0.375-0.581 0.375-0.927s-0.134-0.678-0.375-0.927zM14.667 24.001c-1.846 0-3.65-0.547-5.185-1.573s-2.731-2.483-3.438-4.189c-0.706-1.705-0.891-3.582-0.531-5.393s1.249-3.474 2.554-4.779c1.305-1.305 2.968-2.194 4.779-2.554s3.687-0.175 5.392 0.531c1.706 0.706 3.163 1.903 4.189 3.438s1.573 3.339 1.573 5.185c0 2.475-0.983 4.849-2.734 6.6s-4.124 2.734-6.6 2.734z"></path>
        </symbol>
        <symbol id="icon-burger-menu" viewBox="0 0 31 32">
            <path d="M3.491 7.366c0.129-0.058 2.171-0.068 12.079-0.059l11.924 0.012 0.191 0.13c0.248 0.172 0.411 0.459 0.411 0.784 0 0.004-0 0.009-0 0.012 0 0.4-0.246 0.773-0.599 0.907-0.206 0.077-23.759 0.077-23.965 0-0.352-0.134-0.599-0.506-0.599-0.902l0 0.001c-0-0.009-0-0.019-0-0.028 0-0.38 0.227-0.708 0.558-0.857zM3.517 12.522c0.186-0.074 23.784-0.077 23.981-0.003 0.352 0.133 0.599 0.505 0.599 0.902s-0.247 0.769-0.599 0.902c-0.206 0.078-23.759 0.078-23.965 0-0.352-0.133-0.599-0.505-0.599-0.902 0-0.388 0.244-0.764 0.584-0.899zM3.517 17.693c0.186-0.074 23.784-0.077 23.981-0.003 0.352 0.134 0.599 0.506 0.599 0.902s-0.247 0.769-0.599 0.902c-0.206 0.078-23.759 0.078-23.965 0-0.352-0.133-0.599-0.505-0.599-0.902 0-0.387 0.244-0.763 0.584-0.899zM3.517 22.865c0.186-0.075 23.784-0.078 23.981-0.003 0.353 0.134 0.599 0.505 0.599 0.906v-0.001c0 0.004 0 0.009 0 0.013 0 0.325-0.163 0.612-0.414 0.786l-0.188 0.129h-23.959l-0.188-0.129c-0.375-0.257-0.533-0.835-0.334-1.217 0.1-0.193 0.333-0.417 0.503-0.484z"></path>
        </symbol>
        <symbol id="icon-basket" viewBox="0 0 32 32">
            <path d="M0.827 0.261c-0.867 0.401-0.899 1.663-0.053 2.131 0.14 0.077 0.455 0.091 2.533 0.115l2.373 0.027 1.737 8.671c1.704 8.5 1.741 8.679 1.956 9.12 0.492 1.017 1.387 1.774 2.472 2.071l0.027 0.006c0.4 0.103 0.62 0.105 7.515 0.105s7.115-0.003 7.515-0.105c0.818-0.228 1.508-0.687 2.016-1.303l0.005-0.007c0.285-0.352 0.632-1.033 0.725-1.425 0.189-0.797 2.192-11.469 2.192-11.681 0-0.001 0-0.002 0-0.003 0-0.445-0.245-0.834-0.607-1.037l-0.006-0.003c-0.147-0.081-1.043-0.091-11.2-0.115l-11.040-0.027-0.591-2.933c-0.325-1.613-0.629-3.005-0.676-3.093-0.134-0.235-0.335-0.418-0.577-0.527l-0.008-0.003c-0.171-0.072-0.6-0.083-3.147-0.081-2.756 0.001-2.961 0.008-3.161 0.1zM29.189 9.213c0.036 0.063-1.819 9.719-1.917 9.984-0.12 0.323-0.444 0.659-0.78 0.809l-0.279 0.127h-13.653l-0.279-0.127c-0.351-0.169-0.624-0.451-0.776-0.799l-0.004-0.010c-0.085-0.227-2.008-9.735-2.008-9.929 0-0.091 0.471-0.095 9.837-0.095 5.409 0 9.847 0.019 9.859 0.040zM11.303 25.431c0.193-0.049 0.507-0.091 0.697-0.091h0c1.467 0.003 2.655 1.193 2.655 2.66 0 0.146-0.012 0.289-0.032 0.413-0.088 0.577-0.32 1.025-0.752 1.457-0.625 0.627-1.413 0.885-2.284 0.752-1.267-0.195-2.237-1.309-2.251-2.585-0.012-1.203 0.821-2.308 1.967-2.607zM25.969 25.431c0.193-0.049 0.507-0.091 0.697-0.091h0c1.467 0.003 2.655 1.193 2.655 2.66 0 0.146-0.012 0.289-0.032 0.413-0.088 0.577-0.32 1.025-0.752 1.457-0.625 0.627-1.413 0.885-2.284 0.752-1.267-0.195-2.237-1.309-2.251-2.585-0.012-1.203 0.821-2.308 1.967-2.607z"></path>
        </symbol>
        <symbol id="icon-close" viewBox="0 0 32 32">
            <path d="M24 8L8 24" stroke="#F8F8F8" stroke-width="2" stroke-linecap="round" stroke-linejoin="round" />
            <path d="M8 8L24 24" stroke="#F8F8F8" stroke-width="2" stroke-linecap="round" stroke-linejoin="round" />
        </symbol>
    </defs>
</svg>